<?xml version="1.0" standalone="no"?><!DOCTYPE svg PUBLIC "-//W3C//DTD SVG 1.1//EN" "http://www.w3.org/Graphics/SVG/1.1/DTD/svg11.dtd"><svg height="1553" node-id="1" sillyvg="true" template-height="1553" template-width="1396" version="1.1" viewBox="0 0 1396 1553" width="1396" xmlns="http://www.w3.org/2000/svg" xmlns:xlink="http://www.w3.org/1999/xlink"><defs node-id="71"><clipPath id="clip-path" node-id="5"><path d="M 101.70 22.30 L 1498.30 22.30 L 1498.30 1577.70 L 101.70 1577.70 Z" fill="#000000" fill-rule="nonzero" id="SVGID" node-id="6" stroke="none" target-height="1555.3999" target-width="1396.6001" target-x="101.7" target-y="22.3"></path></clipPath></defs><g node-id="379"><g clip-path="url(#clip-path)" group-id="1" id="sillyvg_g_0" node-id="77"><path d="M 982.20 281.00 L 977.30 284.90 L 972.30 287.90 L 967.10 290.20 L 961.70 291.70 L 956.00 292.50 L 950.00 292.50 L 943.60 291.70 L 936.80 290.00 L 931.60 276.00 L 926.10 262.20 L 920.30 248.50 L 914.10 235.10 L 907.50 221.80 L 900.70 208.80 L 893.50 196.20 L 886.10 183.90 L 878.30 171.80 L 870.20 160.20 L 862.00 149.10 L 853.50 138.40 L 844.60 128.00 L 835.50 118.20 L 826.30 108.90 L 817.00 100.30 L 807.20 92.00 L 797.30 84.40 L 787.30 77.50 L 777.30 71.30 L 768.90 66.70 L 760.50 62.60 L 752.10 59.00 L 743.60 55.90 L 735.10 53.30 L 726.40 51.10 L 717.70 49.50 L 709.00 48.50 L 700.10 48.00 L 691.30 48.00 L 682.50 48.60 L 673.60 49.80 L 664.60 51.70 L 655.60 54.10 L 646.40 57.30 L 637.60 60.90 L 628.80 65.20 L 619.80 70.20 L 610.60 76.10 L 601.30 82.80 L 592.70 89.70 L 583.90 97.40 L 575.00 106.10 L 565.90 115.70 L 556.60 126.40 L 548.20 136.90 L 539.60 148.50 L 530.90 161.10 L 522.10 174.90 L 513.10 189.90 L 455.00 291.50 L 409.50 281.00 L 443.00 216.50 L 454.70 194.90 L 462.70 180.60 L 479.30 152.80 L 488.10 139.30 L 497.20 126.20 L 506.60 113.60 L 514.00 104.40 L 521.50 95.60 L 529.30 87.20 L 537.30 79.10 L 547.80 69.30 L 558.00 60.40 L 568.00 52.20 L 577.70 44.90 L 587.20 38.20 L 596.50 32.30 L 606.60 26.40 L 616.30 21.20 L 625.90 16.70 L 635.30 12.80 L 644.40 9.50 L 653.40 6.70 L 662.80 4.40 L 672.10 2.50 L 681.20 1.20 L 690.10 0.30 L 698.90 -0.00 L 707.60 0.10 L 718.10 0.90 L 728.50 2.30 L 738.70 4.20 L 748.80 6.80 L 758.80 10.00 L 768.50 13.80 L 778.20 18.00 L 787.70 22.80 L 797.20 28.20 L 806.50 34.10 L 815.60 40.30 L 824.50 47.00 L 833.30 54.10 L 842.00 61.70 L 850.60 69.80 L 860.90 80.10 L 870.90 91.10 L 880.80 102.60 L 890.50 114.70 L 899.80 127.10 L 908.80 139.80 L 917.50 153.00 L 926.00 166.50 L 941.90 194.20 L 956.70 222.70 L 965.80 242.10 L 974.30 261.50 L 982.20 281.00 Z" fill="#fddd44" fill-rule="nonzero" group-id="1,50" node-id="81" stroke="none" target-height="292.5" target-width="572.7" target-x="409.5" target-y="-0"></path><path d="M 936.80 290.00 L 827.70 323.30 L 822.30 318.20 L 817.40 312.70 L 813.10 307.00 L 809.40 300.90 L 806.20 294.40 L 803.50 287.60 L 801.30 280.30 L 799.70 272.60 L 794.30 193.00 L 792.90 187.20 L 791.80 184.50 L 789.00 180.40 L 783.50 175.00 L 777.90 170.30 L 772.00 166.40 L 766.00 163.00 L 759.60 160.30 L 753.00 158.30 L 746.10 156.80 L 738.70 156.00 L 731.00 155.80 L 722.80 156.40 L 714.20 157.60 L 705.00 159.70 L 638.40 163.50 L 632.20 164.20 L 626.70 165.40 L 621.90 167.10 L 617.70 169.30 L 614.00 171.90 L 610.80 175.00 L 608.00 178.60 L 605.70 182.80 L 603.70 187.60 L 602.30 193.10 L 601.30 199.40 L 600.90 206.60 L 600.40 276.40 L 598.40 284.20 L 595.80 291.40 L 592.70 298.00 L 589.00 304.00 L 584.80 309.50 L 580.00 314.60 L 574.60 319.20 L 568.60 323.30 L 455.00 291.50 L 513.10 189.90 L 522.10 174.90 L 530.90 161.10 L 539.60 148.50 L 548.20 136.90 L 556.60 126.40 L 565.90 115.70 L 575.00 106.10 L 583.90 97.40 L 592.70 89.70 L 601.30 82.80 L 610.60 76.10 L 619.80 70.20 L 628.80 65.20 L 637.60 60.90 L 646.40 57.30 L 655.60 54.10 L 664.60 51.70 L 673.60 49.80 L 682.50 48.60 L 691.30 48.00 L 700.10 48.00 L 709.00 48.50 L 717.70 49.50 L 726.40 51.10 L 735.10 53.30 L 743.60 55.90 L 752.10 59.00 L 760.50 62.60 L 768.90 66.70 L 777.30 71.30 L 787.30 77.50 L 797.30 84.40 L 807.20 92.00 L 817.00 100.30 L 826.30 108.90 L 835.50 118.20 L 844.60 128.00 L 853.50 138.40 L 862.00 149.10 L 870.20 160.20 L 878.30 171.80 L 886.10 183.90 L 893.50 196.20 L 900.70 208.80 L 907.50 221.80 L 914.10 235.10 L 926.10 262.20 L 936.80 290.00 Z" fill="#ffffff" fill-rule="nonzero" group-id="1,51" node-id="86" stroke="none" target-height="275.3" target-width="481.8" target-x="455" target-y="48"></path></g></g><g node-id="380"><path d="M 705.00 159.70 L 718.60 276.40 L 706.80 278.60 L 695.00 280.40 L 683.20 281.60 L 671.40 282.30 L 659.50 282.60 L 647.60 282.30 L 635.80 281.60 L 624.00 280.40 L 612.20 278.60 L 600.40 276.40 L 601.00 206.60 L 601.30 199.40 L 602.30 193.10 L 603.70 187.60 L 605.70 182.80 L 608.00 178.60 L 610.80 175.00 L 614.00 171.90 L 617.70 169.30 L 621.90 167.10 L 626.70 165.40 L 632.20 164.20 L 638.40 163.50 Z" fill="#fca863" fill-rule="nonzero" group-id="2" node-id="92" stroke="none" target-height="122.90001" target-width="118.19995" target-x="600.4" target-y="159.7"></path></g><g node-id="381"><g clip-path="url(#clip-path)" group-id="3" id="sillyvg_g_1" node-id="95"><path d="M 705.00 159.70 L 714.20 157.60 L 722.80 156.40 L 731.00 155.80 L 738.70 156.00 L 746.00 156.80 L 753.00 158.30 L 759.60 160.30 L 766.00 163.00 L 772.00 166.40 L 777.90 170.30 L 783.50 175.00 L 789.00 180.40 L 790.50 182.30 L 792.90 187.20 L 794.30 193.00 L 799.70 272.60 L 794.20 275.30 L 788.40 277.60 L 782.20 279.30 L 775.50 280.50 L 768.30 281.10 L 760.50 281.20 L 752.10 280.60 L 743.00 279.30 L 733.10 277.30 L 718.60 276.40 Z" fill="#fc9743" fill-rule="nonzero" group-id="3,52" node-id="99" stroke="none" target-height="125.40001" target-width="94.70001" target-x="705" target-y="155.8"></path><path d="M 409.50 281.00 L 455.00 291.50 L 568.60 323.30 L 573.60 326.40 L 577.70 329.60 L 581.10 333.10 L 583.90 336.80 L 586.00 340.80 L 587.60 345.00 L 588.60 349.60 L 589.00 354.60 L 588.70 360.00 L 587.80 366.00 L 586.10 372.60 L 445.90 337.00 L 391.30 327.90 L 358.70 324.90 L 329.60 322.80 L 303.60 321.60 L 280.50 321.20 L 260.10 321.50 L 242.20 322.40 L 226.50 323.80 L 212.80 325.60 L 201.00 327.90 L 187.60 331.10 L 175.10 334.60 L 163.60 338.30 L 153.00 342.30 L 143.10 346.40 L 133.10 351.20 L 123.90 356.30 L 115.40 361.40 L 107.60 366.80 L 100.50 372.30 L 93.60 378.40 L 87.20 384.70 L 81.50 391.10 L 76.30 397.70 L 71.70 404.40 L 67.40 411.50 L 63.70 418.70 L 60.40 426.10 L 57.50 433.70 L 55.10 441.40 L 53.20 449.20 L 51.70 457.20 L 50.50 465.40 L 49.80 473.60 L 49.40 482.10 L 49.50 492.60 L 50.10 503.30 L 51.30 514.20 L 53.00 525.40 L 55.20 536.30 L 57.80 547.40 L 60.90 558.60 L 64.50 569.90 L 69.80 584.80 L 75.70 599.60 L 82.40 614.50 L 89.50 629.20 L 97.10 643.70 L 105.10 658.10 L 113.60 672.20 L 122.30 685.90 L 131.30 699.30 L 140.70 712.40 L 159.50 737.00 L 157.00 743.40 L 154.20 749.10 L 151.00 754.20 L 147.50 758.60 L 143.60 762.50 L 139.40 765.90 L 134.90 768.70 L 129.90 771.10 L 113.50 751.40 L 98.80 732.70 L 85.50 714.90 L 73.70 698.00 L 63.10 681.90 L 53.80 666.60 L 45.70 652.10 L 38.70 638.30 L 32.70 625.20 L 27.60 612.70 L 23.40 600.80 L 20.00 589.50 L 15.80 572.80 L 12.40 556.90 L 9.60 542.00 L 7.60 527.80 L 6.10 514.40 L 5.20 500.40 L 4.80 487.20 L 5.00 474.70 L 5.80 462.90 L 7.10 451.70 L 9.00 440.30 L 11.40 429.40 L 14.20 419.20 L 17.50 409.50 L 21.30 400.40 L 25.60 391.30 L 30.30 382.70 L 35.50 374.50 L 41.00 366.70 L 47.00 359.40 L 53.30 352.40 L 60.10 345.70 L 67.20 339.40 L 74.70 333.50 L 82.50 327.90 L 90.60 322.60 L 99.00 317.70 L 107.80 313.10 L 116.90 308.80 L 126.30 304.70 L 138.20 300.20 L 150.50 296.10 L 163.30 292.30 L 176.60 289.00 L 189.90 286.20 L 203.50 283.70 L 217.40 281.50 L 231.70 279.80 L 250.80 278.00 L 270.20 276.70 L 290.00 276.00 L 309.90 275.80 L 329.80 276.00 L 369.90 277.80 L 409.50 281.00 Z" fill="#5169cc" fill-rule="nonzero" group-id="3,53" node-id="104" stroke="none" target-height="495.3" target-width="584.2" target-x="4.8" target-y="275.8"></path></g></g><g node-id="382"><path d="M 799.70 272.60 L 801.30 280.30 L 803.50 287.50 L 806.20 294.40 L 809.40 300.80 L 813.10 306.90 L 817.40 312.70 L 822.20 318.10 L 827.70 323.30 L 822.80 327.70 L 819.10 331.80 L 816.50 335.70 L 814.70 339.40 L 813.70 343.00 L 813.40 346.50 L 813.80 349.90 L 814.80 353.40 L 816.60 357.00 L 819.20 360.70 L 822.90 364.60 L 827.70 368.70 L 823.00 373.60 L 819.20 378.60 L 816.20 383.50 L 813.90 388.50 L 812.20 393.60 L 811.30 398.80 L 810.90 404.20 L 811.20 409.80 L 812.30 415.70 L 814.00 421.80 L 800.40 423.30 L 736.80 412.70 L 733.10 277.30 L 743.00 279.30 L 752.10 280.60 L 760.50 281.20 L 768.30 281.10 L 775.50 280.50 L 782.20 279.30 L 788.40 277.60 L 794.20 275.30 L 799.70 272.60 Z" fill="#a8d3d8" fill-rule="nonzero" group-id="4" node-id="110" stroke="none" target-height="150.69998" target-width="94.60004" target-x="733.1" target-y="272.6"></path></g><g node-id="383"><g clip-path="url(#clip-path)" group-id="5" id="sillyvg_g_2" node-id="113"><path d="M 600.40 276.40 L 612.20 278.60 L 624.00 280.40 L 635.80 281.60 L 647.60 282.30 L 659.50 282.60 L 671.40 282.30 L 683.20 281.60 L 695.00 280.40 L 706.80 278.60 L 718.60 276.40 L 733.10 277.30 L 736.80 412.80 L 600.40 418.80 L 595.90 417.30 L 586.10 372.60 L 587.80 366.00 L 588.70 360.00 L 589.00 354.60 L 588.60 349.60 L 587.60 345.00 L 586.00 340.80 L 583.90 336.80 L 581.10 333.10 L 577.70 329.60 L 573.60 326.30 L 568.60 323.30 L 574.60 319.10 L 580.00 314.50 L 584.80 309.50 L 589.00 304.00 L 592.70 297.90 L 595.80 291.40 L 598.40 284.20 L 600.40 276.40 Z" fill="#ddebf0" fill-rule="nonzero" group-id="5,54" node-id="117" stroke="none" target-height="142.4" target-width="168.20001" target-x="568.6" target-y="276.4"></path><path d="M 1268.60 780.90 L 1262.60 782.50 L 1257.60 784.50 L 1253.40 786.90 L 1249.80 789.70 L 1246.80 793.00 L 1244.40 796.80 L 1242.60 801.10 L 1241.30 806.00 L 1240.60 811.60 L 1240.60 818.00 L 1228.90 826.30 L 1217.60 835.00 L 1206.70 844.00 L 1196.10 853.50 L 1185.90 863.40 L 1176.00 873.60 L 1166.60 884.20 L 1157.50 895.10 L 1148.90 906.40 L 1140.60 918.00 L 1136.80 917.30 L 1128.00 907.90 L 1123.20 903.60 L 1112.90 895.90 L 1101.80 889.60 L 1095.90 887.00 L 1205.70 777.10 L 1211.30 773.20 L 1216.10 769.00 L 1220.30 764.50 L 1223.80 759.70 L 1226.80 754.60 L 1229.20 749.10 L 1231.00 743.20 L 1232.20 737.00 L 1241.20 727.80 L 1250.20 717.80 L 1259.40 706.80 L 1268.20 695.50 L 1276.90 683.60 L 1285.50 670.80 L 1293.70 657.90 L 1301.60 644.40 L 1309.10 630.50 L 1316.10 616.40 L 1322.60 602.00 L 1328.60 587.40 L 1336.30 565.20 L 1342.50 543.00 L 1345.00 531.70 L 1347.00 520.60 L 1348.50 509.70 L 1349.50 498.80 L 1350.00 487.90 L 1349.90 477.20 L 1349.20 466.70 L 1348.00 456.40 L 1346.50 448.20 L 1344.70 440.20 L 1342.40 432.40 L 1339.70 424.80 L 1336.50 417.30 L 1333.00 410.10 L 1328.90 403.00 L 1324.40 396.20 L 1319.30 389.50 L 1313.70 383.10 L 1307.80 377.10 L 1301.30 371.30 L 1294.20 365.70 L 1286.40 360.30 L 1277.90 355.20 L 1269.50 350.60 L 1260.30 346.40 L 1250.30 342.30 L 1239.50 338.60 L 1227.90 335.10 L 1209.90 330.70 L 1191.70 327.10 L 1173.40 324.10 L 1154.80 321.90 L 1136.00 320.50 L 1116.90 319.80 L 1097.50 319.90 L 1077.80 320.80 L 1057.90 322.50 L 1037.50 325.00 L 1016.90 328.30 L 995.90 332.40 L 959.50 337.00 L 827.70 368.80 L 822.90 364.70 L 819.20 360.70 L 816.60 357.00 L 814.80 353.40 L 813.80 350.00 L 813.40 346.50 L 813.70 343.00 L 814.70 339.50 L 816.50 335.80 L 819.10 331.90 L 822.80 327.70 L 827.70 323.30 L 936.80 290.00 L 943.60 291.70 L 950.00 292.50 L 956.00 292.50 L 961.70 291.70 L 967.10 290.20 L 972.30 287.90 L 977.30 284.90 L 982.20 281.00 L 1004.20 278.70 L 1025.30 276.90 L 1045.60 275.70 L 1065.10 275.00 L 1083.80 274.70 L 1101.70 275.00 L 1119.00 275.70 L 1137.20 276.90 L 1154.60 278.60 L 1171.20 280.70 L 1187.00 283.30 L 1202.00 286.20 L 1216.20 289.50 L 1229.80 293.20 L 1242.30 297.10 L 1254.20 301.30 L 1265.40 305.80 L 1276.00 310.50 L 1286.10 315.50 L 1295.70 320.70 L 1304.80 326.20 L 1313.30 331.90 L 1322.00 338.30 L 1330.00 345.00 L 1337.60 351.80 L 1344.60 359.00 L 1351.20 366.30 L 1357.30 374.00 L 1362.90 381.90 L 1368.00 390.00 L 1372.70 398.50 L 1376.90 407.20 L 1380.70 416.10 L 1383.90 425.40 L 1386.70 435.00 L 1389.10 444.90 L 1391.00 455.10 L 1392.30 465.70 L 1393.20 475.90 L 1393.50 486.50 L 1393.40 497.30 L 1392.80 508.50 L 1391.60 520.10 L 1389.90 532.10 L 1387.70 544.50 L 1384.90 557.30 L 1381.30 570.90 L 1377.10 584.90 L 1372.10 599.50 L 1366.30 614.50 L 1359.80 630.10 L 1352.40 646.20 L 1344.10 662.90 L 1335.90 678.30 L 1326.90 694.20 L 1317.10 710.60 L 1306.30 727.40 L 1294.70 744.70 L 1282.10 762.60 L 1268.60 781.00 Z" fill="#28d1b3" fill-rule="nonzero" group-id="5,55" node-id="122" stroke="none" target-height="643.3" target-width="580.1" target-x="813.4" target-y="274.7"></path><path d="M 391.30 327.90 L 367.90 445.30 L 323.10 446.00 L 287.20 423.80 L 277.90 418.50 L 268.80 413.80 L 262.60 411.10 L 256.50 408.90 L 250.60 407.20 L 246.10 406.20 L 237.40 405.50 L 233.10 405.80 L 229.00 406.50 L 224.90 407.70 L 220.80 409.40 L 216.80 411.70 L 213.20 414.30 L 209.50 417.60 L 205.80 421.80 L 202.10 426.70 L 199.00 431.80 L 195.80 437.70 L 192.70 444.80 L 189.50 453.00 L 182.30 461.90 L 175.70 471.10 L 169.60 480.70 L 164.00 490.70 L 158.90 501.10 L 154.40 511.90 L 150.40 523.10 L 147.00 534.80 L 146.10 539.00 L 145.70 543.20 L 145.80 547.40 L 146.40 551.60 L 147.40 555.80 L 148.80 559.70 L 150.70 563.60 L 153.00 567.30 L 155.60 570.80 L 158.70 574.00 L 162.10 577.00 L 165.90 579.70 L 227.70 618.80 L 246.60 654.40 L 159.50 737.00 L 140.70 712.40 L 131.30 699.30 L 122.30 685.90 L 113.60 672.20 L 105.10 658.10 L 97.10 643.70 L 89.50 629.20 L 82.30 614.50 L 75.70 599.60 L 69.80 584.80 L 64.50 569.90 L 60.90 558.60 L 57.80 547.40 L 55.20 536.30 L 53.00 525.40 L 51.30 514.20 L 50.10 503.30 L 49.50 492.60 L 49.40 482.10 L 49.70 473.60 L 50.50 465.40 L 51.60 457.20 L 53.20 449.20 L 55.10 441.40 L 57.50 433.70 L 60.40 426.10 L 63.70 418.70 L 67.40 411.50 L 71.70 404.40 L 76.30 397.70 L 81.50 391.10 L 87.20 384.70 L 93.60 378.40 L 100.50 372.30 L 107.60 366.80 L 115.40 361.40 L 123.80 356.30 L 133.10 351.20 L 143.10 346.40 L 152.90 342.30 L 163.60 338.30 L 175.10 334.60 L 187.50 331.10 L 201.00 327.90 L 212.80 325.60 L 226.50 323.80 L 242.20 322.40 L 260.10 321.50 L 280.50 321.20 L 303.60 321.60 L 329.60 322.80 L 358.70 324.90 L 391.30 327.90 Z M 1232.20 737.00 L 1154.20 654.40 L 1168.60 623.30 L 1207.90 599.00 L 1218.00 592.30 L 1227.50 585.20 L 1233.50 580.20 L 1238.90 575.10 L 1243.70 569.90 L 1247.10 565.70 L 1249.90 561.50 L 1252.30 557.10 L 1254.20 552.70 L 1255.70 548.10 L 1256.60 543.30 L 1256.80 538.40 L 1256.50 533.20 L 1254.80 525.10 L 1253.20 520.70 L 1251.00 516.10 L 1248.30 511.20 L 1244.60 505.60 L 1239.90 499.70 L 1234.10 493.20 L 1227.00 486.20 L 1223.00 475.60 L 1218.30 465.20 L 1212.90 455.10 L 1206.80 445.30 L 1199.90 435.70 L 1192.30 426.30 L 1183.90 417.10 L 1180.80 414.30 L 1177.50 411.90 L 1174.20 409.90 L 1170.60 408.30 L 1166.90 407.00 L 1163.20 406.20 L 1159.50 405.80 L 1155.70 405.90 L 1151.90 406.30 L 1148.30 407.20 L 1144.80 408.50 L 1141.30 410.20 L 1073.10 450.60 L 1066.30 453.40 L 1059.90 455.30 L 1053.90 456.30 L 1048.10 456.60 L 1042.60 456.00 L 1037.30 454.70 L 1032.10 452.70 L 1027.00 449.80 L 1025.90 437.60 L 1024.50 425.50 L 1022.50 413.40 L 1020.10 401.50 L 1017.20 389.60 L 1013.80 377.80 L 1010.00 366.30 L 1005.80 354.80 L 1001.00 343.50 L 995.90 332.40 L 1016.90 328.20 L 1037.60 324.90 L 1057.90 322.50 L 1077.80 320.80 L 1097.50 319.90 L 1116.90 319.80 L 1136.00 320.50 L 1154.80 321.90 L 1173.40 324.10 L 1191.80 327.00 L 1209.90 330.70 L 1227.90 335.10 L 1239.60 338.60 L 1250.40 342.30 L 1260.30 346.30 L 1269.50 350.60 L 1278.00 355.10 L 1286.40 360.30 L 1294.20 365.70 L 1301.30 371.30 L 1307.80 377.00 L 1313.70 383.00 L 1319.30 389.50 L 1324.40 396.20 L 1328.90 403.00 L 1333.00 410.10 L 1336.60 417.30 L 1339.70 424.80 L 1342.40 432.40 L 1344.70 440.20 L 1346.60 448.20 L 1348.00 456.40 L 1349.20 466.70 L 1349.90 477.10 L 1350.00 487.80 L 1349.50 498.80 L 1348.50 509.60 L 1347.00 520.60 L 1345.00 531.70 L 1342.50 543.00 L 1339.60 554.10 L 1332.70 576.30 L 1328.60 587.40 L 1322.60 602.00 L 1316.10 616.40 L 1309.10 630.50 L 1301.60 644.40 L 1293.70 657.80 L 1285.60 670.80 L 1277.00 683.50 L 1268.30 695.50 L 1259.40 706.80 L 1250.20 717.80 L 1241.20 727.80 L 1232.20 736.90 Z" fill="#ffffff" fill-rule="nonzero" group-id="5,56" node-id="127" stroke="none" target-height="417.2" target-width="1300.6" target-x="49.4" target-y="319.8"></path></g></g><g node-id="384"><path d="M 391.30 327.90 L 445.90 337.00 L 405.00 471.90 L 398.90 471.10 L 393.50 469.80 L 388.60 467.90 L 384.10 465.60 L 380.10 462.70 L 376.50 459.30 L 373.30 455.30 L 370.40 450.60 L 367.90 445.30 Z M 995.90 332.40 L 1001.00 343.60 L 1005.80 354.80 L 1010.00 366.30 L 1013.80 377.90 L 1017.20 389.60 L 1020.10 401.50 L 1022.50 413.40 L 1024.50 425.50 L 1025.90 437.60 L 1027.00 449.90 L 1024.20 455.50 L 1021.20 459.90 L 1018.00 463.40 L 1014.60 466.00 L 1010.90 467.90 L 1006.90 469.10 L 1002.40 469.50 L 997.50 469.20 L 992.00 468.00 L 959.50 337.00 Z" fill="#fddd44" fill-rule="nonzero" group-id="6" node-id="133" stroke="none" target-height="144" target-width="659.1" target-x="367.9" target-y="327.9"></path></g><g node-id="385"><path d="M 445.90 337.00 L 586.10 372.60 L 595.90 417.30 L 450.40 496.00 L 443.40 495.10 L 436.80 493.50 L 430.70 491.40 L 424.90 488.70 L 419.50 485.40 L 414.30 481.50 L 409.50 477.00 L 405.00 471.90 Z M 959.50 337.00 L 992.00 468.00 L 988.50 474.50 L 984.60 480.20 L 980.10 485.10 L 975.30 489.40 L 969.90 493.10 L 964.00 496.20 L 957.50 498.70 L 950.40 500.60 L 814.00 421.90 L 812.30 415.70 L 811.20 409.90 L 810.90 404.30 L 811.20 398.90 L 812.20 393.70 L 813.90 388.60 L 816.20 383.50 L 819.20 378.60 L 823.00 373.70 L 827.70 368.80 Z" fill="#ffffff" fill-rule="nonzero" group-id="7" node-id="138" stroke="none" target-height="163.6" target-width="587" target-x="405" target-y="337"></path></g><g node-id="386"><path d="M 323.10 446.00 L 299.70 499.90 L 295.10 509.00 L 292.10 511.00 L 288.90 512.40 L 285.60 513.20 L 282.20 513.40 L 278.40 513.00 L 274.40 511.90 L 262.90 507.50 L 251.90 502.60 L 241.50 497.10 L 231.70 491.20 L 222.30 484.60 L 213.40 477.60 L 205.00 469.90 L 197.00 461.70 L 189.50 453.00 L 192.70 444.80 L 195.80 437.70 L 199.00 431.80 L 202.10 426.70 L 205.80 421.80 L 209.50 417.60 L 213.20 414.30 L 216.80 411.70 L 220.80 409.40 L 224.90 407.70 L 229.00 406.50 L 233.10 405.80 L 241.70 405.70 L 246.10 406.20 L 250.60 407.20 L 256.50 408.90 L 262.60 411.10 L 268.80 413.80 L 277.90 418.50 L 287.20 423.80 L 323.10 446.00 Z" fill="#fc9743" fill-rule="nonzero" group-id="8" node-id="143" stroke="none" target-height="107.70001" target-width="133.6" target-x="189.5" target-y="405.7"></path></g><g node-id="387"><path d="M 1227.00 486.20 L 1218.00 490.50 L 1209.40 495.10 L 1200.90 500.00 L 1192.70 505.30 L 1184.70 510.90 L 1176.90 516.80 L 1169.40 523.10 L 1162.20 529.70 L 1155.20 536.60 L 1148.50 543.70 L 1142.10 551.20 L 1136.00 559.00 L 1132.20 558.20 L 1123.00 545.80 L 1114.30 533.10 L 1106.20 520.00 L 1098.50 506.70 L 1091.40 493.00 L 1084.80 479.10 L 1078.70 465.00 L 1073.10 450.60 L 1141.30 410.20 L 1144.80 408.40 L 1148.30 407.10 L 1151.90 406.30 L 1155.70 405.80 L 1159.40 405.80 L 1163.20 406.20 L 1166.90 407.00 L 1170.60 408.30 L 1174.20 409.90 L 1177.50 411.90 L 1180.80 414.30 L 1183.90 417.10 L 1192.30 426.30 L 1199.90 435.70 L 1206.80 445.30 L 1212.90 455.10 L 1218.30 465.20 L 1223.00 475.50 L 1227.00 486.20 Z" fill="#fca863" fill-rule="nonzero" group-id="9" node-id="148" stroke="none" target-height="153.20001" target-width="153.90002" target-x="1073.1" target-y="405.8"></path></g><g node-id="388"><path d="M 736.80 412.80 L 800.40 423.30 L 801.10 463.50 L 799.00 477.50 L 797.30 491.40 L 796.10 505.50 L 795.30 519.50 L 795.00 533.60 L 795.20 547.60 L 795.80 561.70 L 796.90 575.70 L 798.40 589.70 L 800.40 603.70 L 727.90 642.20 L 714.80 494.00 L 714.20 491.50 L 713.20 489.30 L 711.60 487.40 L 709.70 485.90 L 707.50 484.90 L 705.00 484.40 L 601.10 477.10 L 595.90 471.90 L 600.40 418.80 Z" fill="#f8c52d" fill-rule="nonzero" group-id="10" node-id="153" stroke="none" target-height="229.40002" target-width="205.19995" target-x="595.9" target-y="412.8"></path></g><g node-id="389"><path d="M 595.90 417.30 L 600.40 418.80 L 595.90 471.90 L 583.80 476.40 L 572.00 481.30 L 560.40 486.70 L 549.00 492.60 L 537.90 498.80 L 527.00 505.50 L 516.30 512.60 L 506.00 520.00 L 495.90 527.90 L 486.00 536.20 L 450.40 517.30 L 450.40 496.00 Z" fill="#28d1b3" fill-rule="nonzero" group-id="11" node-id="158" stroke="none" target-height="118.900024" target-width="150.00003" target-x="450.4" target-y="417.3"></path></g><g node-id="390"><path d="M 800.40 423.30 L 814.00 421.90 L 950.40 500.60 L 954.20 518.00 L 914.80 536.20 L 801.10 463.50 Z" fill="#5169cc" fill-rule="nonzero" group-id="12" node-id="163" stroke="none" target-height="114.30002" target-width="153.79999" target-x="800.4" target-y="421.9"></path></g><g node-id="391"><path d="M 323.10 446.00 L 367.90 445.30 L 370.40 450.60 L 373.30 455.30 L 376.50 459.30 L 380.10 462.70 L 384.10 465.60 L 388.60 467.90 L 393.50 469.80 L 398.90 471.10 L 405.00 471.90 L 409.50 477.00 L 414.30 481.50 L 419.40 485.40 L 424.90 488.70 L 430.70 491.40 L 436.80 493.50 L 443.40 495.10 L 450.40 496.00 L 450.40 517.30 L 405.70 586.20 L 405.70 581.40 L 405.10 576.70 L 404.00 572.40 L 402.30 568.10 L 400.20 564.10 L 397.70 560.20 L 394.80 556.40 L 391.40 552.80 L 386.60 548.30 L 381.30 543.90 L 375.50 539.80 L 366.40 534.10 L 356.80 528.90 L 347.20 524.10 L 321.10 512.20 L 317.50 511.30 L 314.90 511.10 L 310.90 511.30 L 303.90 512.20 L 302.30 511.80 L 301.10 511.00 L 300.20 509.60 L 299.50 507.40 L 299.30 504.30 L 299.70 499.90 Z" fill="#a8d3d8" fill-rule="nonzero" group-id="13" node-id="168" stroke="none" target-height="140.90002" target-width="151.1" target-x="299.3" target-y="445.3"></path></g><g node-id="392"><path d="M 189.50 453.00 L 197.00 461.70 L 205.00 469.90 L 213.40 477.60 L 222.30 484.60 L 231.70 491.20 L 241.50 497.10 L 251.90 502.60 L 262.90 507.50 L 274.40 511.90 L 278.40 513.00 L 282.20 513.40 L 285.60 513.20 L 288.90 512.40 L 292.10 511.00 L 295.10 509.00 L 288.40 523.70 L 281.20 538.20 L 273.50 552.30 L 265.30 566.30 L 256.60 579.90 L 247.40 593.20 L 237.80 606.10 L 227.70 618.80 L 165.90 579.70 L 162.00 576.90 L 158.60 574.00 L 155.60 570.80 L 153.00 567.30 L 150.70 563.60 L 148.80 559.70 L 147.40 555.70 L 146.40 551.60 L 145.80 547.40 L 145.70 543.20 L 146.10 539.00 L 147.00 534.80 L 150.40 523.10 L 154.40 511.90 L 158.90 501.10 L 164.00 490.70 L 169.60 480.70 L 175.70 471.10 L 182.30 461.90 L 189.50 453.00 Z" fill="#fca863" fill-rule="nonzero" group-id="14" node-id="173" stroke="none" target-height="165.79999" target-width="149.40001" target-x="145.7" target-y="453"></path></g><g node-id="393"><path d="M 1027.00 449.90 L 1032.10 452.70 L 1037.30 454.80 L 1042.60 456.00 L 1048.10 456.60 L 1053.90 456.30 L 1059.90 455.30 L 1066.30 453.40 L 1073.10 450.60 L 1078.70 465.00 L 1084.80 479.20 L 1091.40 493.00 L 1098.50 506.70 L 1106.20 520.00 L 1114.30 533.10 L 1123.00 545.80 L 1132.20 558.20 L 1124.90 567.90 L 1117.20 576.80 L 1109.20 585.00 L 1100.80 592.40 L 1092.10 599.10 L 1082.90 605.20 L 1073.40 610.60 L 1063.40 615.30 L 1053.00 619.40 L 1042.10 622.90 L 1030.60 625.70 L 1018.60 627.90 L 954.20 518.00 L 950.40 500.60 L 957.50 498.70 L 964.00 496.20 L 969.90 493.10 L 975.30 489.40 L 980.10 485.10 L 984.60 480.10 L 988.50 474.50 L 992.00 468.00 L 997.50 469.20 L 1002.40 469.50 L 1006.80 469.10 L 1010.90 467.90 L 1014.60 466.00 L 1018.00 463.40 L 1021.20 459.90 L 1024.20 455.40 L 1027.00 449.80 Z" fill="#ddebf0" fill-rule="nonzero" group-id="15" node-id="178" stroke="none" target-height="178.10004" target-width="181.79993" target-x="950.4" target-y="449.8"></path></g><g node-id="394"><path d="M 801.10 463.50 L 914.80 536.20 L 900.40 546.00 L 800.40 603.70 L 798.40 589.70 L 796.90 575.70 L 795.80 561.70 L 795.20 547.60 L 795.00 533.60 L 795.30 519.50 L 796.10 505.50 L 797.30 491.40 L 799.00 477.50 L 801.10 463.50 Z M 595.90 471.90 L 601.10 477.10 L 599.70 599.90 L 486.00 536.20 L 495.90 527.90 L 506.00 520.00 L 516.30 512.60 L 527.00 505.50 L 537.90 498.80 L 549.00 492.60 L 560.40 486.70 L 572.00 481.30 L 583.80 476.40 L 595.90 471.90 Z" fill="#ffffff" fill-rule="nonzero" group-id="16" node-id="183" stroke="none" target-height="140.20001" target-width="428.8" target-x="486" target-y="463.5"></path></g><g node-id="395"><path d="M 601.10 477.10 L 705.00 484.40 L 707.50 484.90 L 709.70 485.90 L 711.60 487.40 L 713.20 489.30 L 714.20 491.50 L 714.80 494.00 L 727.90 642.20 L 726.70 645.90 L 725.00 649.10 L 722.90 651.70 L 720.20 654.00 L 717.10 655.90 L 713.20 657.40 L 708.60 658.50 L 703.10 659.00 L 696.60 659.00 L 599.70 599.90 Z" fill="#fddd44" fill-rule="nonzero" group-id="17" node-id="188" stroke="none" target-height="181.9" target-width="128.20001" target-x="599.7" target-y="477.1"></path></g><g node-id="396"><path d="M 1227.00 486.20 L 1234.10 493.20 L 1239.90 499.70 L 1244.60 505.60 L 1248.30 511.20 L 1253.20 520.70 L 1254.80 525.10 L 1255.90 529.20 L 1256.50 533.20 L 1256.80 538.40 L 1256.50 543.30 L 1255.70 548.10 L 1254.20 552.70 L 1252.30 557.10 L 1249.90 561.50 L 1247.10 565.70 L 1243.70 569.90 L 1238.90 575.10 L 1233.50 580.20 L 1227.50 585.20 L 1218.00 592.30 L 1207.90 599.00 L 1168.60 623.30 L 1136.00 559.00 L 1142.10 551.20 L 1148.50 543.70 L 1155.20 536.60 L 1162.20 529.70 L 1169.40 523.10 L 1176.90 516.80 L 1184.70 510.90 L 1192.70 505.30 L 1200.90 500.00 L 1209.40 495.10 L 1218.00 490.50 L 1227.00 486.20 Z" fill="#fc9743" fill-rule="nonzero" group-id="18" node-id="193" stroke="none" target-height="137.09998" target-width="120.80005" target-x="1136" target-y="486.2"></path></g><g node-id="397"><path d="M 299.70 499.90 L 299.30 504.30 L 299.50 507.50 L 300.20 509.60 L 301.10 511.00 L 302.30 511.80 L 303.90 512.20 L 310.90 511.30 L 314.90 511.10 L 317.50 511.30 L 321.10 512.20 L 347.20 524.10 L 356.80 528.90 L 366.40 534.10 L 375.50 539.80 L 381.30 543.90 L 386.60 548.30 L 391.40 552.80 L 394.80 556.40 L 397.70 560.20 L 400.20 564.10 L 402.30 568.10 L 404.00 572.40 L 405.10 576.70 L 405.70 581.40 L 405.70 586.20 L 354.20 690.80 L 333.00 695.30 L 329.10 690.50 L 325.10 686.50 L 321.00 683.40 L 316.80 681.00 L 312.50 679.30 L 307.90 678.30 L 303.20 677.90 L 298.10 678.20 L 292.60 679.20 L 286.80 681.00 L 284.60 675.20 L 282.10 670.30 L 279.20 666.20 L 275.90 662.80 L 272.30 659.90 L 268.20 657.60 L 263.70 655.90 L 258.70 654.80 L 253.00 654.30 L 246.60 654.40 L 227.70 618.80 L 237.80 606.10 L 247.50 593.20 L 256.60 579.90 L 265.30 566.30 L 273.50 552.30 L 281.20 538.20 L 288.40 523.70 L 295.10 509.00 Z" fill="#ddebf0" fill-rule="nonzero" group-id="19" node-id="198" stroke="none" target-height="195.4" target-width="178.00002" target-x="227.7" target-y="499.9"></path></g><g node-id="398"><path d="M 450.40 517.30 L 486.00 536.20 L 599.70 599.90 L 696.60 659.00 L 627.70 705.10 L 477.00 621.70 L 474.00 620.40 L 471.00 619.70 L 468.00 619.50 L 465.00 619.80 L 462.10 620.50 L 459.40 621.80 L 456.90 623.50 L 454.70 625.60 L 452.80 628.20 L 400.40 714.20 L 382.20 709.70 L 354.20 690.80 L 405.70 586.20 Z" fill="#3351c5" fill-rule="nonzero" group-id="20" node-id="203" stroke="none" target-height="196.90002" target-width="342.39996" target-x="354.2" target-y="517.3"></path></g><g node-id="399"><path d="M 954.20 518.00 L 1018.60 627.90 L 1041.30 694.60 L 1018.60 714.20 L 1006.20 718.70 L 994.10 723.70 L 982.10 729.00 L 970.40 734.70 L 958.80 740.90 L 947.40 747.40 L 936.30 754.20 L 925.40 761.50 L 914.70 769.10 L 904.20 777.10 L 700.40 894.60 L 595.90 953.70 L 486.00 1018.00 L 440.60 1045.30 L 405.00 1067.30 L 368.60 1082.40 L 345.90 1021.90 L 345.90 1005.10 L 943.70 655.70 L 946.40 653.50 L 947.50 652.20 L 948.60 649.90 L 949.10 647.50 L 948.80 644.10 L 948.20 642.40 L 900.40 546.00 L 914.80 536.20 Z" fill="#22b69f" fill-rule="nonzero" group-id="21" node-id="208" stroke="none" target-height="564.4" target-width="695.4" target-x="345.9" target-y="518"></path></g><g node-id="400"><path d="M 900.40 546.00 L 948.20 642.40 L 949.10 645.80 L 949.10 647.50 L 948.60 649.90 L 947.50 652.20 L 945.20 654.70 L 345.90 1005.10 L 339.40 994.80 L 332.50 984.90 L 325.30 975.30 L 317.60 966.00 L 309.60 956.90 L 301.10 948.30 L 292.40 940.00 L 283.30 932.10 L 273.80 924.50 L 264.10 917.30 L 264.10 909.70 L 270.90 908.30 L 277.60 906.50 L 284.10 904.20 L 290.50 901.60 L 296.70 898.50 L 302.70 895.00 L 308.50 891.20 L 337.50 868.00 L 382.20 844.60 L 505.00 773.30 L 627.70 705.10 L 696.60 658.90 L 703.10 659.00 L 708.60 658.40 L 713.20 657.40 L 717.10 655.90 L 720.20 654.00 L 722.90 651.70 L 725.00 649.00 L 726.70 645.90 L 727.90 642.20 L 800.40 603.70 Z" fill="#28d1b3" fill-rule="nonzero" group-id="22" node-id="213" stroke="none" target-height="459.09998" target-width="685" target-x="264.1" target-y="546"></path></g><g node-id="401"><path d="M 1132.20 558.20 L 1136.00 559.00 L 1168.60 623.30 L 1154.20 654.40 L 1146.80 655.30 L 1140.70 656.70 L 1135.70 658.60 L 1131.70 660.90 L 1128.50 663.60 L 1125.90 666.60 L 1124.00 670.10 L 1122.80 674.10 L 1122.10 678.60 L 1122.20 683.90 L 1123.10 690.00 L 1116.00 687.70 L 1109.10 686.10 L 1102.30 685.40 L 1095.80 685.30 L 1089.40 686.00 L 1083.00 687.30 L 1076.70 689.50 L 1070.40 692.30 L 1064.00 696.00 L 1041.30 694.60 L 1018.60 627.80 L 1030.60 625.70 L 1042.00 622.90 L 1053.00 619.40 L 1063.40 615.30 L 1073.40 610.60 L 1082.90 605.20 L 1092.10 599.10 L 1100.80 592.40 L 1109.20 585.00 L 1117.20 576.80 L 1124.90 567.90 L 1132.20 558.20 Z" fill="#a8d3d8" fill-rule="nonzero" group-id="23" node-id="218" stroke="none" target-height="137.79999" target-width="150" target-x="1018.6" target-y="558.2"></path></g><g node-id="402"><g clip-path="url(#clip-path)" group-id="24" id="sillyvg_g_3" node-id="221"><path d="M 627.70 705.10 L 505.00 773.30 L 400.40 714.20 L 452.80 628.20 L 454.70 625.60 L 456.90 623.50 L 459.40 621.80 L 462.10 620.50 L 465.00 619.80 L 468.00 619.50 L 471.00 619.70 L 474.00 620.40 L 477.00 621.70 Z" fill="#5169cc" fill-rule="nonzero" group-id="24,57" node-id="225" stroke="none" target-height="153.79999" target-width="227.30002" target-x="400.4" target-y="619.5"></path><path d="M 246.60 654.40 L 253.00 654.30 L 258.70 654.80 L 263.70 655.90 L 268.20 657.70 L 272.30 659.90 L 275.90 662.80 L 279.20 666.20 L 282.10 670.30 L 284.60 675.20 L 286.80 681.00 L 273.90 691.50 L 261.30 702.50 L 249.20 713.90 L 237.50 725.80 L 226.30 738.00 L 215.40 750.70 L 205.10 763.70 L 195.10 777.10 L 189.00 779.70 L 183.70 782.60 L 179.00 786.10 L 175.10 789.90 L 171.70 794.20 L 168.90 799.10 L 166.70 804.50 L 165.10 810.50 L 164.00 817.30 L 152.70 829.10 L 141.80 841.40 L 131.40 854.30 L 121.50 867.60 L 112.00 881.40 L 102.90 895.80 L 94.30 910.80 L 86.20 926.40 L 78.40 942.50 L 71.20 959.30 L 64.40 976.80 L 59.60 990.60 L 55.70 1003.60 L 52.60 1015.90 L 50.10 1027.60 L 48.40 1038.60 L 47.10 1050.20 L 46.50 1061.10 L 46.50 1071.50 L 47.10 1081.30 L 48.20 1090.50 L 50.00 1100.00 L 52.20 1109.00 L 54.90 1117.50 L 58.10 1125.60 L 61.80 1133.30 L 66.00 1140.80 L 70.60 1148.00 L 75.60 1154.80 L 81.00 1161.30 L 86.90 1167.50 L 93.10 1173.30 L 99.60 1178.80 L 106.50 1184.10 L 113.70 1189.00 L 121.40 1193.70 L 131.10 1199.10 L 141.30 1204.10 L 152.00 1208.70 L 163.10 1212.80 L 174.40 1216.50 L 185.90 1219.80 L 197.80 1222.80 L 222.20 1227.50 L 247.10 1230.90 L 259.70 1232.00 L 276.60 1233.00 L 293.50 1233.50 L 310.20 1233.40 L 327.00 1232.90 L 343.40 1231.80 L 359.40 1230.30 L 375.30 1228.30 L 441.30 1217.30 L 599.70 1172.60 L 600.40 1212.70 L 586.80 1226.40 L 464.10 1259.70 L 414.10 1268.70 L 398.40 1271.30 L 382.00 1273.40 L 365.00 1275.10 L 347.90 1276.30 L 330.40 1277.10 L 312.60 1277.30 L 294.70 1277.00 L 276.80 1276.20 L 258.70 1274.90 L 240.70 1273.00 L 222.90 1270.50 L 205.30 1267.40 L 192.20 1264.60 L 179.30 1261.50 L 166.60 1258.10 L 154.30 1254.30 L 142.00 1250.00 L 130.10 1245.40 L 118.60 1240.50 L 107.50 1235.10 L 96.50 1229.30 L 86.10 1223.10 L 76.20 1216.50 L 66.80 1209.50 L 59.50 1203.50 L 52.60 1197.20 L 46.10 1190.70 L 40.00 1183.90 L 34.20 1176.80 L 28.80 1169.50 L 23.80 1161.80 L 19.30 1153.80 L 15.20 1145.40 L 11.50 1136.70 L 8.40 1127.90 L 5.70 1118.70 L 3.50 1109.20 L 1.80 1099.10 L 0.70 1088.60 L 0.10 1078.40 L 0.00 1067.60 L 0.60 1056.40 L 1.70 1044.50 L 3.50 1032.10 L 5.80 1020.30 L 8.80 1007.90 L 12.40 994.80 L 16.80 981.10 L 22.10 966.70 L 30.70 945.30 L 40.20 923.70 L 50.40 902.20 L 61.50 880.50 L 73.40 858.80 L 86.20 837.00 L 99.80 815.20 L 114.40 793.20 L 129.90 771.10 L 134.90 768.70 L 139.40 765.80 L 143.70 762.50 L 147.50 758.60 L 151.00 754.10 L 154.20 749.10 L 157.00 743.40 L 159.50 736.90 Z" fill="#28d1b3" fill-rule="nonzero" group-id="24,58" node-id="230" stroke="none" target-height="623.00006" target-width="600.4" target-x="0" target-y="654.3"></path></g></g><g node-id="403"><path d="M 1154.20 654.40 L 1232.20 737.00 L 1231.00 743.20 L 1229.20 749.10 L 1226.80 754.60 L 1223.90 759.70 L 1220.30 764.50 L 1216.10 769.00 L 1211.30 773.20 L 1205.70 777.10 L 1123.10 690.00 L 1122.20 683.90 L 1122.10 678.60 L 1122.80 674.10 L 1124.00 670.10 L 1125.90 666.60 L 1128.50 663.60 L 1131.70 660.90 L 1135.70 658.60 L 1140.70 656.70 L 1146.80 655.30 L 1154.20 654.40 Z" fill="#5169cc" fill-rule="nonzero" group-id="25" node-id="236" stroke="none" target-height="122.69995" target-width="110.099976" target-x="1122.1" target-y="654.4"></path></g><g node-id="404"><path d="M 333.00 695.30 L 337.50 868.00 L 314.00 887.00 L 300.30 878.10 L 287.00 868.70 L 274.00 858.90 L 261.50 848.60 L 249.30 837.80 L 237.60 826.50 L 226.30 814.80 L 215.50 802.70 L 205.10 790.10 L 195.10 777.10 L 205.10 763.70 L 215.40 750.70 L 226.30 738.00 L 237.50 725.80 L 249.20 713.90 L 261.30 702.50 L 273.90 691.50 L 286.80 681.00 L 292.60 679.20 L 298.10 678.20 L 303.10 677.90 L 307.90 678.30 L 312.50 679.30 L 316.80 681.10 L 321.00 683.40 L 325.10 686.50 L 329.10 690.50 L 333.00 695.30 Z" fill="#ffffff" fill-rule="nonzero" group-id="26" node-id="241" stroke="none" target-height="209.09998" target-width="142.4" target-x="195.1" target-y="677.9"></path></g><g node-id="405"><path d="M 354.20 690.80 L 382.20 709.70 L 380.20 726.50 L 378.80 743.40 L 377.90 760.20 L 377.60 777.10 L 377.90 794.00 L 378.80 810.90 L 380.20 827.80 L 382.20 844.60 L 337.50 868.00 L 333.00 695.30 Z" fill="#fddd44" fill-rule="nonzero" group-id="27" node-id="246" stroke="none" target-height="177.20001" target-width="49.200012" target-x="333" target-y="690.8"></path></g><g node-id="406"><path d="M 1123.10 690.00 L 1205.70 777.10 L 1095.90 887.00 L 1058.80 868.00 L 1064.00 696.00 L 1070.40 692.30 L 1076.70 689.50 L 1083.00 687.30 L 1089.30 686.00 L 1095.80 685.30 L 1102.30 685.40 L 1109.10 686.10 L 1116.00 687.70 L 1123.10 690.00 Z" fill="#ffffff" fill-rule="nonzero" group-id="28" node-id="251" stroke="none" target-height="201.70001" target-width="146.8999" target-x="1058.8" target-y="685.3"></path></g><g node-id="407"><path d="M 1064.00 696.00 L 1058.80 868.00 L 1009.50 840.00 L 1012.40 827.60 L 1014.90 815.20 L 1016.90 802.70 L 1018.50 790.20 L 1019.60 777.50 L 1020.30 764.90 L 1020.50 752.20 L 1020.30 739.60 L 1019.70 726.90 L 1018.60 714.20 L 1041.30 694.60 Z" fill="#fddd44" fill-rule="nonzero" group-id="29" node-id="256" stroke="none" target-height="173.40002" target-width="54.5" target-x="1009.5" target-y="694.6"></path></g><g node-id="408"><path d="M 382.20 709.70 L 400.40 714.20 L 505.00 773.30 L 382.20 844.60 L 380.20 827.70 L 378.80 810.90 L 377.90 794.00 L 377.60 777.10 L 377.90 760.20 L 378.80 743.30 L 380.20 726.50 L 382.20 709.70 Z M 1018.60 714.20 L 1019.70 726.90 L 1020.30 739.60 L 1020.50 752.20 L 1020.30 764.90 L 1019.60 777.50 L 1018.50 790.20 L 1016.90 802.70 L 1014.90 815.20 L 1012.40 827.60 L 1009.50 840.00 L 904.20 777.10 L 914.70 769.10 L 925.40 761.50 L 936.30 754.30 L 947.40 747.40 L 958.80 740.90 L 970.40 734.80 L 982.10 729.00 L 994.10 723.70 L 1006.20 718.80 L 1018.60 714.20 Z" fill="#ffffff" fill-rule="nonzero" group-id="30" node-id="261" stroke="none" target-height="134.89996" target-width="642.9" target-x="377.6" target-y="709.7"></path></g><g node-id="409"><path d="M 195.10 777.10 L 205.10 790.10 L 215.50 802.70 L 226.30 814.80 L 237.60 826.50 L 249.30 837.80 L 261.50 848.60 L 274.00 858.90 L 287.00 868.70 L 300.30 878.10 L 314.00 887.00 L 308.50 891.20 L 302.70 895.00 L 296.70 898.50 L 290.50 901.60 L 284.10 904.20 L 277.60 906.50 L 270.90 908.30 L 264.10 909.70 L 164.00 817.30 L 165.10 810.50 L 166.70 804.50 L 168.90 799.10 L 171.70 794.20 L 175.10 789.90 L 179.10 786.10 L 183.70 782.60 L 189.00 779.70 L 195.10 777.10 Z" fill="#5169cc" fill-rule="nonzero" group-id="31" node-id="266" stroke="none" target-height="132.60004" target-width="150" target-x="164" target-y="777.1"></path></g><g node-id="410"><g clip-path="url(#clip-path)" group-id="32" id="sillyvg_g_4" node-id="269"><path d="M 904.20 777.10 L 1009.50 840.00 L 1058.80 868.00 L 1107.40 892.60 L 1118.20 899.60 L 1128.00 907.90 L 1132.50 912.40 L 1136.80 917.30 L 1086.80 955.10 L 1076.10 959.20 L 1071.50 960.40 L 1063.10 961.40 L 1059.10 961.40 L 1051.90 960.20 L 1047.40 958.80 L 1043.10 956.90 L 1039.00 954.50 L 1033.10 950.40 L 1015.40 935.80 L 1009.10 930.90 L 1002.20 926.40 L 973.80 909.90 L 945.00 894.00 L 915.90 878.70 L 886.40 864.00 L 883.80 863.00 L 881.10 862.50 L 878.30 862.40 L 875.60 862.70 L 872.90 863.50 L 870.40 864.80 L 768.60 927.90 L 700.40 894.60 Z" fill="#3351c5" fill-rule="nonzero" group-id="32,59" node-id="273" stroke="none" target-height="184.30005" target-width="436.40002" target-x="700.4" target-y="777.1"></path><path d="M 1268.60 780.90 L 1279.30 793.90 L 1289.70 807.10 L 1299.80 820.60 L 1309.60 834.30 L 1319.00 848.30 L 1328.00 862.40 L 1336.50 876.60 L 1344.50 890.90 L 1352.20 905.50 L 1359.30 920.10 L 1365.80 934.70 L 1371.70 949.20 L 1377.10 964.00 L 1381.90 978.70 L 1385.90 993.20 L 1389.30 1007.60 L 1391.50 1019.30 L 1393.30 1030.90 L 1394.50 1042.20 L 1395.30 1053.50 L 1395.60 1064.60 L 1395.30 1075.70 L 1394.50 1086.70 L 1393.20 1097.50 L 1391.30 1108.10 L 1388.80 1118.50 L 1386.30 1127.10 L 1383.40 1135.50 L 1380.00 1143.80 L 1376.20 1151.90 L 1371.90 1159.90 L 1367.20 1167.80 L 1362.20 1175.40 L 1356.60 1182.80 L 1350.60 1190.00 L 1344.00 1197.20 L 1336.80 1204.20 L 1329.00 1211.10 L 1321.20 1217.30 L 1312.80 1223.50 L 1303.80 1229.50 L 1294.10 1235.30 L 1283.70 1241.00 L 1272.50 1246.50 L 1261.70 1251.40 L 1250.10 1256.10 L 1237.80 1260.60 L 1224.70 1264.80 L 1210.70 1268.90 L 1195.90 1272.80 L 1184.70 1275.10 L 1171.70 1277.00 L 1156.80 1278.50 L 1139.60 1279.50 L 1120.10 1279.80 L 1097.90 1279.40 L 1072.80 1278.20 L 1044.60 1276.10 L 1013.00 1273.00 L 977.70 1268.80 L 936.80 1259.70 L 814.00 1226.40 L 795.90 1203.70 L 801.10 1172.60 L 959.50 1217.30 L 1000.40 1221.90 L 1019.10 1224.60 L 1037.10 1226.80 L 1054.50 1228.50 L 1071.20 1229.70 L 1087.20 1230.40 L 1102.60 1230.60 L 1118.80 1230.40 L 1134.20 1229.70 L 1148.90 1228.50 L 1162.90 1227.00 L 1176.30 1225.00 L 1189.10 1222.70 L 1202.40 1219.70 L 1214.90 1216.30 L 1226.80 1212.60 L 1238.00 1208.60 L 1248.50 1204.20 L 1258.50 1199.40 L 1268.60 1194.00 L 1278.00 1188.30 L 1286.80 1182.20 L 1294.90 1175.90 L 1302.50 1169.30 L 1309.50 1162.30 L 1315.20 1155.90 L 1320.50 1149.30 L 1325.40 1142.40 L 1329.80 1135.40 L 1333.90 1128.10 L 1337.50 1120.50 L 1340.70 1112.70 L 1343.40 1104.90 L 1345.70 1096.70 L 1347.60 1088.40 L 1349.00 1079.80 L 1350.00 1070.80 L 1350.60 1061.60 L 1350.70 1052.10 L 1350.30 1041.40 L 1349.20 1030.30 L 1347.50 1018.90 L 1345.20 1007.00 L 1342.10 994.70 L 1338.30 981.80 L 1334.10 969.80 L 1329.30 957.40 L 1323.70 944.50 L 1317.30 931.30 L 1310.10 917.50 L 1302.00 903.30 L 1293.90 890.10 L 1285.10 876.50 L 1275.30 862.50 L 1264.70 848.10 L 1253.10 833.30 L 1240.60 818.00 L 1240.60 811.60 L 1241.30 806.00 L 1242.60 801.10 L 1244.50 796.80 L 1246.90 793.00 L 1249.80 789.70 L 1253.40 786.90 L 1257.60 784.50 L 1262.70 782.50 L 1268.60 780.90 Z" fill="#5169cc" fill-rule="nonzero" group-id="32,60" node-id="278" stroke="none" target-height="498.90002" target-width="599.69995" target-x="795.9" target-y="780.9"></path><path d="M 164.00 817.30 L 264.10 909.70 L 264.10 917.30 L 255.80 924.30 L 247.80 931.50 L 240.20 939.00 L 233.00 946.90 L 226.00 955.10 L 219.40 963.50 L 213.10 972.20 L 207.30 981.20 L 191.10 1009.00 L 185.30 1017.80 L 179.00 1026.40 L 172.50 1034.80 L 165.50 1042.80 L 152.50 1056.60 L 144.40 1066.70 L 141.60 1070.90 L 139.10 1075.60 L 137.40 1079.60 L 136.40 1083.10 L 136.00 1086.20 L 136.20 1089.40 L 136.80 1092.20 L 137.90 1094.80 L 139.50 1097.10 L 143.90 1100.90 L 150.10 1104.10 L 154.70 1105.60 L 160.00 1106.90 L 165.90 1107.80 L 178.20 1108.80 L 184.90 1109.00 L 195.10 1108.70 L 205.30 1108.10 L 225.10 1105.70 L 242.30 1102.50 L 255.00 1099.10 L 363.30 1090.70 L 366.40 1107.90 L 370.20 1124.90 L 374.50 1141.80 L 379.40 1158.50 L 384.90 1175.00 L 391.00 1191.30 L 397.70 1207.40 L 405.00 1223.30 L 390.50 1226.00 L 375.30 1228.30 L 359.40 1230.30 L 343.40 1231.80 L 327.00 1232.80 L 310.20 1233.40 L 293.50 1233.50 L 276.60 1233.00 L 259.70 1232.00 L 247.10 1230.80 L 222.20 1227.50 L 197.80 1222.80 L 185.90 1219.80 L 174.40 1216.50 L 163.10 1212.80 L 152.00 1208.60 L 141.30 1204.10 L 131.10 1199.10 L 121.40 1193.70 L 113.70 1189.00 L 106.50 1184.00 L 99.60 1178.80 L 93.10 1173.20 L 86.90 1167.40 L 81.00 1161.30 L 75.60 1154.80 L 70.60 1147.90 L 66.00 1140.80 L 61.80 1133.30 L 58.10 1125.60 L 54.90 1117.50 L 52.20 1109.00 L 50.00 1100.00 L 48.20 1090.50 L 47.10 1081.20 L 46.50 1071.40 L 46.50 1061.10 L 47.10 1050.20 L 48.40 1038.60 L 50.10 1027.60 L 52.60 1015.90 L 55.70 1003.60 L 59.60 990.50 L 64.40 976.80 L 71.20 959.30 L 78.40 942.50 L 86.10 926.40 L 94.30 910.80 L 102.90 895.80 L 112.00 881.40 L 121.50 867.60 L 131.40 854.20 L 141.80 841.40 L 152.70 829.10 L 164.00 817.30 Z M 1240.60 818.00 L 1253.10 833.30 L 1264.70 848.10 L 1275.30 862.50 L 1285.10 876.50 L 1293.90 890.10 L 1302.00 903.30 L 1310.10 917.50 L 1317.30 931.30 L 1323.70 944.50 L 1329.30 957.40 L 1334.10 969.80 L 1338.30 981.80 L 1342.10 994.70 L 1345.20 1007.00 L 1347.50 1018.90 L 1349.20 1030.30 L 1350.30 1041.40 L 1350.70 1052.10 L 1350.60 1061.60 L 1350.00 1070.80 L 1349.00 1079.80 L 1347.60 1088.40 L 1345.70 1096.70 L 1343.40 1104.90 L 1340.70 1112.70 L 1337.50 1120.50 L 1333.90 1128.10 L 1329.80 1135.40 L 1325.40 1142.40 L 1320.50 1149.30 L 1315.20 1155.90 L 1309.50 1162.30 L 1302.50 1169.30 L 1294.90 1175.90 L 1286.80 1182.20 L 1278.00 1188.30 L 1268.60 1194.00 L 1258.50 1199.40 L 1248.50 1204.20 L 1238.00 1208.60 L 1226.80 1212.60 L 1214.90 1216.30 L 1202.40 1219.70 L 1189.10 1222.70 L 1176.30 1225.00 L 1162.90 1227.00 L 1148.90 1228.50 L 1134.20 1229.70 L 1118.80 1230.40 L 1102.60 1230.60 L 1087.20 1230.40 L 1071.20 1229.70 L 1054.50 1228.50 L 1037.10 1226.80 L 1019.10 1224.60 L 1000.40 1221.90 L 1033.00 1095.30 L 1145.10 1095.30 L 1226.60 1112.40 L 1229.20 1112.70 L 1232.00 1112.50 L 1234.90 1111.90 L 1240.50 1109.50 L 1243.30 1107.70 L 1247.00 1104.60 L 1249.90 1101.50 L 1252.30 1098.50 L 1254.00 1095.40 L 1255.40 1092.00 L 1256.40 1088.60 L 1256.90 1085.20 L 1256.90 1081.60 L 1256.40 1076.90 L 1255.40 1072.10 L 1253.70 1067.00 L 1249.00 1057.10 L 1245.90 1052.10 L 1240.90 1044.70 L 1235.40 1037.30 L 1208.00 1004.80 L 1140.60 918.00 L 1148.90 906.40 L 1157.50 895.10 L 1166.60 884.20 L 1176.00 873.60 L 1185.90 863.40 L 1196.10 853.50 L 1206.70 844.00 L 1217.70 835.00 L 1228.90 826.30 L 1240.60 818.00 Z" fill="#ffffff" fill-rule="nonzero" group-id="32,61" node-id="283" stroke="none" target-height="416.2" target-width="1304.2" target-x="46.5" target-y="817.3"></path></g></g><g node-id="411"><path d="M 1086.80 955.10 L 1086.80 958.20 L 1078.50 969.70 L 1070.80 981.40 L 1063.80 993.40 L 1057.50 1005.70 L 1051.80 1018.20 L 1046.80 1031.10 L 1042.40 1044.40 L 1038.60 1057.90 L 1035.50 1071.90 L 1033.00 1086.20 L 996.60 1063.50 L 964.00 1044.60 L 914.80 1013.50 L 800.40 950.60 L 768.60 927.90 L 870.40 864.80 L 873.00 863.50 L 875.60 862.70 L 878.30 862.40 L 881.10 862.50 L 883.80 863.00 L 886.40 864.00 L 915.80 878.70 L 945.00 894.00 L 973.80 909.90 L 1002.20 926.40 L 1009.10 930.90 L 1015.50 935.80 L 1033.10 950.40 L 1039.00 954.50 L 1043.10 956.90 L 1047.40 958.80 L 1051.90 960.20 L 1059.10 961.40 L 1063.10 961.40 L 1071.60 960.40 L 1076.10 959.20 L 1086.80 955.10 Z" fill="#5169cc" fill-rule="nonzero" group-id="33" node-id="289" stroke="none" target-height="223.79993" target-width="318.20007" target-x="768.6" target-y="862.4"></path></g><g node-id="412"><path d="M 700.40 894.60 L 768.60 927.80 L 800.40 950.60 L 801.10 1086.20 L 798.90 1092.70 L 797.40 1099.10 L 796.40 1105.30 L 796.10 1111.50 L 796.50 1117.70 L 797.40 1123.80 L 798.90 1130.00 L 801.10 1136.20 L 801.10 1172.60 L 795.90 1203.70 L 788.70 1204.50 L 781.60 1204.60 L 774.60 1204.10 L 767.60 1202.90 L 760.60 1201.10 L 753.60 1198.50 L 746.60 1195.30 L 736.80 1190.00 L 729.80 1183.80 L 728.10 1181.30 L 726.90 1178.50 L 726.20 1175.50 L 725.70 1169.30 L 725.20 1160.00 L 724.00 1063.80 L 722.40 1033.40 L 721.20 1019.40 L 719.00 1001.90 L 715.90 986.90 L 714.10 980.70 L 712.10 975.60 L 710.20 971.90 L 708.30 969.10 L 706.30 967.00 L 704.20 965.50 L 701.90 964.60 L 699.40 964.20 L 696.90 964.40 L 694.30 965.20 L 692.00 966.40 L 689.70 968.20 L 682.00 975.10 L 674.10 981.30 L 665.90 986.90 L 657.50 991.90 L 648.90 996.20 L 640.00 1000.00 L 630.80 1003.20 L 621.30 1005.70 L 611.40 1007.70 L 601.10 1009.10 L 595.90 953.70 Z" fill="#f8c52d" fill-rule="nonzero" group-id="34" node-id="294" stroke="none" target-height="310" target-width="205.19995" target-x="595.9" target-y="894.6"></path></g><g node-id="413"><path d="M 264.10 917.30 L 273.80 924.50 L 283.30 932.10 L 292.40 940.00 L 301.10 948.30 L 309.60 956.90 L 317.60 966.00 L 325.30 975.30 L 332.50 984.90 L 339.40 994.80 L 345.90 1005.10 L 345.90 1021.90 L 236.80 1050.60 L 196.60 999.90 L 201.80 990.40 L 207.30 981.20 L 213.10 972.20 L 219.40 963.50 L 226.00 955.10 L 233.00 946.90 L 240.20 939.00 L 247.80 931.50 L 255.80 924.30 L 264.10 917.30 Z" fill="#fcdbbe" fill-rule="nonzero" group-id="35" node-id="299" stroke="none" target-height="133.29999" target-width="149.29999" target-x="196.6" target-y="917.3"></path></g><g node-id="414"><path d="M 1136.80 917.30 L 1140.60 918.00 L 1204.20 999.90 L 1198.40 1004.10 L 1192.90 1008.60 L 1187.70 1013.40 L 1182.80 1018.50 L 1178.20 1023.90 L 1173.90 1029.50 L 1170.00 1035.40 L 1166.40 1041.50 L 1163.10 1047.80 L 1160.20 1054.40 L 1156.10 1045.00 L 1151.70 1035.80 L 1146.80 1026.80 L 1141.60 1018.10 L 1135.90 1009.60 L 1129.90 1001.40 L 1123.60 993.50 L 1116.90 985.80 L 1109.80 978.40 L 1102.50 971.40 L 1094.80 964.60 L 1086.80 958.20 L 1086.80 955.10 Z" fill="#fcc99f" fill-rule="nonzero" group-id="36" node-id="304" stroke="none" target-height="137.10004" target-width="117.3999" target-x="1086.8" target-y="917.3"></path></g><g node-id="415"><path d="M 800.40 950.60 L 914.80 1013.50 L 901.70 1024.30 L 888.40 1034.70 L 874.60 1044.50 L 860.50 1053.90 L 846.10 1062.70 L 831.40 1071.10 L 816.40 1078.90 L 801.10 1086.20 Z M 595.90 953.70 L 601.10 1009.10 L 595.10 1081.70 L 486.00 1018.00 Z" fill="#ffffff" fill-rule="nonzero" group-id="37" node-id="309" stroke="none" target-height="135.59998" target-width="428.8" target-x="486" target-y="950.6"></path></g><g node-id="416"><path d="M 1086.80 958.20 L 1094.80 964.60 L 1102.50 971.40 L 1109.80 978.40 L 1116.90 985.80 L 1123.60 993.50 L 1129.90 1001.40 L 1135.90 1009.60 L 1141.50 1018.10 L 1146.80 1026.80 L 1151.70 1035.80 L 1156.10 1045.00 L 1160.20 1054.40 L 1145.10 1095.30 L 1033.00 1095.30 L 1033.00 1086.20 L 1035.50 1071.90 L 1038.60 1057.90 L 1042.40 1044.40 L 1046.80 1031.10 L 1051.80 1018.20 L 1057.50 1005.70 L 1063.80 993.40 L 1070.80 981.40 L 1078.50 969.70 L 1086.80 958.20 Z" fill="#fcdbbe" fill-rule="nonzero" group-id="38" node-id="314" stroke="none" target-height="137.10004" target-width="127.19995" target-x="1033" target-y="958.2"></path></g><g node-id="417"><path d="M 736.80 1190.00 L 725.10 1187.90 L 713.80 1186.60 L 702.80 1186.10 L 692.00 1186.30 L 681.50 1187.20 L 671.10 1188.90 L 661.00 1191.30 L 651.00 1194.40 L 641.10 1198.20 L 631.30 1202.80 L 621.60 1208.20 L 612.10 1214.40 L 610.20 1215.20 L 608.30 1215.60 L 606.30 1215.40 L 600.40 1212.80 L 599.70 1172.60 L 599.70 1140.80 L 595.10 1081.70 L 601.10 1009.10 L 611.40 1007.80 L 621.30 1005.80 L 630.80 1003.20 L 640.00 1000.00 L 648.90 996.30 L 657.50 991.90 L 665.90 986.90 L 674.10 981.40 L 682.00 975.10 L 689.70 968.20 L 692.00 966.40 L 694.30 965.20 L 696.90 964.50 L 699.40 964.20 L 701.90 964.60 L 704.20 965.50 L 706.30 967.00 L 708.30 969.10 L 710.20 971.90 L 712.10 975.70 L 714.10 980.70 L 715.90 986.90 L 717.60 994.40 L 720.20 1010.20 L 722.40 1033.40 L 724.00 1063.80 L 725.20 1160.00 L 725.70 1169.30 L 726.20 1175.50 L 726.90 1178.50 L 728.10 1181.30 L 729.80 1183.90 L 732.00 1186.00 Z" fill="#fddd44" fill-rule="nonzero" group-id="39" node-id="319" stroke="none" target-height="251.39996" target-width="141.70001" target-x="595.1" target-y="964.2"></path></g><g node-id="418"><path d="M 196.60 999.90 L 236.80 1050.60 L 255.00 1099.10 L 242.30 1102.50 L 234.30 1104.10 L 215.50 1107.00 L 205.30 1108.00 L 195.10 1108.70 L 184.90 1109.00 L 178.20 1108.80 L 165.90 1107.80 L 160.00 1106.90 L 154.70 1105.60 L 150.10 1104.10 L 143.90 1100.90 L 139.50 1097.10 L 137.90 1094.80 L 136.80 1092.20 L 136.20 1089.40 L 136.00 1086.20 L 136.40 1083.10 L 137.40 1079.60 L 139.10 1075.60 L 141.60 1070.90 L 144.40 1066.70 L 152.50 1056.60 L 165.50 1042.80 L 172.50 1034.80 L 179.00 1026.40 L 185.30 1017.80 L 191.10 1009.00 L 196.60 999.80 Z M 1204.20 999.90 L 1212.90 1010.70 L 1229.60 1030.20 L 1240.90 1044.70 L 1249.00 1057.10 L 1253.70 1067.00 L 1255.40 1072.10 L 1256.40 1076.90 L 1256.90 1081.60 L 1256.90 1085.20 L 1256.40 1088.60 L 1255.40 1092.00 L 1254.00 1095.40 L 1252.30 1098.50 L 1249.90 1101.50 L 1247.00 1104.60 L 1243.30 1107.70 L 1240.50 1109.50 L 1234.90 1111.90 L 1232.00 1112.50 L 1229.20 1112.70 L 1226.60 1112.40 L 1145.10 1095.30 L 1160.20 1054.40 L 1163.10 1047.80 L 1166.40 1041.50 L 1170.00 1035.40 L 1173.90 1029.50 L 1178.20 1023.90 L 1182.80 1018.50 L 1187.70 1013.40 L 1192.90 1008.60 L 1198.40 1004.10 L 1204.20 999.90 Z" fill="#685e67" fill-rule="nonzero" group-id="40" node-id="324" stroke="none" target-height="112.89996" target-width="1120.9" target-x="136" target-y="999.8"></path></g><g node-id="419"><path d="M 914.80 1013.50 L 964.00 1044.60 L 801.10 1136.20 L 798.90 1130.00 L 797.40 1123.80 L 796.50 1117.70 L 796.10 1111.50 L 796.40 1105.30 L 797.40 1099.10 L 798.90 1092.70 L 801.10 1086.20 L 816.40 1078.90 L 831.40 1071.10 L 846.10 1062.80 L 860.50 1053.90 L 874.60 1044.50 L 888.40 1034.70 L 901.70 1024.30 L 914.80 1013.50 Z" fill="#28d1b3" fill-rule="nonzero" group-id="41" node-id="329" stroke="none" target-height="122.69995" target-width="167.90002" target-x="796.1" target-y="1013.5"></path></g><g node-id="420"><path d="M 486.00 1018.00 L 595.10 1081.70 L 599.70 1140.80 L 440.60 1045.30 Z" fill="#5169cc" fill-rule="nonzero" group-id="42" node-id="334" stroke="none" target-height="122.80005" target-width="159.1" target-x="440.6" target-y="1018"></path></g><g node-id="421"><path d="M 345.90 1021.90 L 368.60 1082.40 L 363.30 1090.80 L 255.00 1099.10 L 236.80 1050.60 Z" fill="#fcc99f" fill-rule="nonzero" group-id="43" node-id="339" stroke="none" target-height="77.19995" target-width="131.8" target-x="236.8" target-y="1021.9"></path></g><g node-id="422"><path d="M 440.60 1045.30 L 599.70 1140.80 L 599.70 1172.60 L 441.30 1217.30 L 405.00 1067.30 Z M 964.00 1044.60 L 996.60 1063.50 L 959.50 1217.30 L 801.10 1172.60 L 801.10 1136.20 Z" fill="#ffffff" fill-rule="nonzero" group-id="44" node-id="344" stroke="none" target-height="172.70007" target-width="591.6" target-x="405" target-y="1044.6"></path></g><g node-id="423"><path d="M 996.60 1063.50 L 1033.00 1086.20 L 1033.00 1095.30 L 1000.40 1221.90 L 959.50 1217.30 Z M 405.00 1067.30 L 441.30 1217.30 L 405.00 1223.30 L 397.70 1207.40 L 391.00 1191.30 L 384.90 1175.00 L 379.40 1158.50 L 374.50 1141.80 L 370.20 1125.00 L 366.40 1108.00 L 363.30 1090.80 L 368.60 1082.40 Z" fill="#fddd44" fill-rule="nonzero" group-id="45" node-id="349" stroke="none" target-height="159.80005" target-width="669.7" target-x="363.3" target-y="1063.5"></path></g><g node-id="424"><path d="M 736.80 1190.00 L 746.60 1195.30 L 741.90 1207.60 L 736.80 1219.60 L 731.20 1231.40 L 725.20 1243.00 L 718.80 1254.40 L 712.00 1265.50 L 704.70 1276.40 L 697.10 1286.90 L 689.00 1297.30 L 680.60 1307.30 L 671.40 1308.60 L 662.90 1310.40 L 655.10 1312.70 L 647.90 1315.50 L 641.30 1318.80 L 623.70 1274.30 L 615.70 1257.10 L 611.30 1249.00 L 606.80 1242.00 L 603.50 1237.60 L 600.30 1234.00 L 597.10 1231.10 L 594.50 1229.20 L 591.90 1227.80 L 589.30 1226.90 L 586.80 1226.40 L 600.40 1212.80 L 606.30 1215.40 L 608.30 1215.60 L 610.20 1215.20 L 612.10 1214.40 L 621.60 1208.20 L 631.30 1202.80 L 641.10 1198.20 L 651.00 1194.40 L 661.00 1191.30 L 671.10 1188.90 L 681.50 1187.20 L 692.00 1186.30 L 702.80 1186.10 L 713.80 1186.60 L 725.10 1187.90 L 736.80 1190.00 Z" fill="#fcdbbe" fill-rule="nonzero" group-id="46" node-id="354" stroke="none" target-height="132.70007" target-width="159.79999" target-x="586.8" target-y="1186.1"></path></g><g node-id="425"><path d="M 746.60 1195.30 L 753.60 1198.60 L 760.60 1201.10 L 767.60 1203.00 L 774.60 1204.10 L 781.60 1204.60 L 788.70 1204.50 L 795.90 1203.70 L 814.00 1226.40 L 807.90 1227.30 L 804.10 1228.50 L 801.00 1230.80 L 799.80 1232.30 L 755.00 1321.90 L 748.80 1316.40 L 742.60 1312.00 L 736.30 1308.40 L 730.00 1305.60 L 723.60 1303.50 L 717.00 1302.20 L 710.30 1301.70 L 703.30 1301.90 L 696.10 1302.80 L 688.50 1304.60 L 680.60 1307.30 L 689.00 1297.30 L 697.10 1286.90 L 704.70 1276.40 L 712.00 1265.50 L 718.80 1254.40 L 725.20 1243.00 L 731.20 1231.40 L 736.80 1219.60 L 741.90 1207.60 L 746.60 1195.30 Z" fill="#fcc99f" fill-rule="nonzero" group-id="47" node-id="359" stroke="none" target-height="126.599976" target-width="133.40002" target-x="680.6" target-y="1195.3"></path></g><g node-id="426"><g clip-path="url(#clip-path)" group-id="48" id="sillyvg_g_5" node-id="362"><path d="M 586.80 1226.40 L 589.30 1226.90 L 591.90 1227.80 L 594.50 1229.20 L 597.10 1231.10 L 600.30 1234.00 L 603.50 1237.60 L 606.80 1242.00 L 611.30 1249.00 L 615.70 1257.10 L 623.70 1274.30 L 641.30 1318.80 L 645.50 1325.70 L 650.60 1337.00 L 663.10 1368.90 L 666.80 1376.60 L 672.20 1386.30 L 675.10 1390.50 L 678.30 1394.40 L 681.70 1397.70 L 685.30 1400.50 L 688.20 1402.20 L 691.30 1403.50 L 694.60 1404.50 L 698.10 1405.00 L 701.50 1405.10 L 705.30 1404.70 L 709.40 1403.70 L 713.90 1402.20 L 719.00 1399.50 L 723.20 1395.50 L 724.90 1393.20 L 726.20 1390.60 L 755.00 1321.80 L 798.80 1234.00 L 801.00 1230.80 L 804.10 1228.50 L 807.90 1227.30 L 814.00 1226.40 L 936.80 1259.70 L 927.10 1284.90 L 915.10 1312.20 L 901.00 1340.20 L 893.30 1354.20 L 885.10 1368.10 L 876.30 1381.90 L 867.10 1395.40 L 857.50 1408.50 L 847.40 1421.10 L 839.50 1430.40 L 831.30 1439.20 L 823.00 1447.60 L 814.40 1455.60 L 805.50 1463.20 L 796.40 1470.30 L 787.10 1476.70 L 777.60 1482.70 L 769.80 1487.00 L 761.80 1490.90 L 753.70 1494.40 L 745.60 1497.40 L 737.20 1499.90 L 728.80 1502.00 L 720.20 1503.50 L 711.50 1504.50 L 702.60 1505.00 L 693.50 1504.90 L 685.00 1504.30 L 676.60 1503.20 L 668.30 1501.60 L 660.20 1499.50 L 652.10 1497.00 L 642.30 1493.20 L 632.60 1488.90 L 623.10 1483.90 L 613.80 1478.30 L 604.70 1472.20 L 595.90 1465.60 L 587.20 1458.60 L 578.70 1450.90 L 570.50 1443.00 L 562.60 1434.80 L 554.80 1426.10 L 547.30 1417.10 L 537.70 1404.80 L 528.50 1392.10 L 519.80 1378.90 L 511.50 1365.60 L 503.80 1352.10 L 496.50 1338.60 L 489.70 1324.80 L 483.50 1311.30 L 477.80 1298.10 L 472.60 1284.70 L 468.00 1271.90 L 464.10 1259.70 Z" fill="#ffffff" fill-rule="nonzero" group-id="48,62" node-id="366" stroke="none" target-height="278.59998" target-width="472.69998" target-x="464.1" target-y="1226.4"></path><path d="M 464.10 1259.70 L 468.00 1271.90 L 472.60 1284.70 L 477.80 1298.10 L 483.50 1311.30 L 489.70 1324.80 L 496.50 1338.60 L 503.80 1352.10 L 511.50 1365.60 L 519.80 1379.00 L 528.50 1392.10 L 537.70 1404.80 L 547.30 1417.10 L 554.80 1426.20 L 562.60 1434.80 L 570.50 1443.10 L 578.70 1451.00 L 587.20 1458.60 L 595.90 1465.70 L 604.70 1472.20 L 613.80 1478.30 L 623.10 1483.90 L 632.60 1488.90 L 642.30 1493.30 L 652.10 1497.00 L 660.20 1499.50 L 668.30 1501.60 L 676.60 1503.20 L 685.00 1504.30 L 693.50 1504.90 L 702.60 1505.00 L 711.50 1504.60 L 720.20 1503.60 L 728.80 1502.00 L 737.20 1499.90 L 745.60 1497.40 L 753.70 1494.40 L 761.80 1490.90 L 769.80 1487.00 L 777.60 1482.70 L 787.10 1476.80 L 796.40 1470.30 L 805.50 1463.20 L 814.40 1455.60 L 823.00 1447.60 L 831.30 1439.20 L 839.50 1430.40 L 847.40 1421.20 L 857.50 1408.50 L 867.10 1395.40 L 876.30 1381.90 L 885.10 1368.10 L 893.30 1354.20 L 901.00 1340.20 L 908.40 1326.10 L 921.30 1298.70 L 927.10 1284.90 L 936.80 1259.70 L 977.70 1268.80 L 971.60 1288.20 L 965.00 1307.00 L 957.90 1325.20 L 950.20 1342.90 L 941.90 1360.00 L 933.00 1376.50 L 923.70 1392.60 L 913.70 1408.10 L 903.20 1423.10 L 892.10 1437.70 L 880.50 1451.80 L 868.30 1465.50 L 855.50 1478.70 L 842.00 1491.50 L 832.90 1499.50 L 824.00 1506.80 L 815.30 1513.40 L 806.70 1519.40 L 798.30 1524.80 L 790.00 1529.60 L 781.20 1534.20 L 772.50 1538.20 L 764.00 1541.70 L 755.70 1544.70 L 747.40 1547.20 L 739.30 1549.30 L 729.20 1551.20 L 719.20 1552.50 L 709.40 1553.20 L 699.80 1553.30 L 690.20 1552.80 L 680.60 1551.80 L 671.10 1550.20 L 661.80 1548.10 L 652.50 1545.60 L 643.30 1542.50 L 634.20 1538.90 L 625.30 1535.00 L 616.50 1530.60 L 607.70 1525.80 L 599.00 1520.50 L 588.40 1513.40 L 578.00 1505.90 L 567.80 1497.70 L 557.70 1489.00 L 548.00 1480.00 L 538.50 1470.60 L 529.20 1460.70 L 520.10 1450.40 L 508.40 1436.30 L 497.20 1421.80 L 486.40 1406.80 L 476.10 1391.50 L 466.40 1376.10 L 457.20 1360.50 L 448.40 1344.70 L 440.40 1329.10 L 432.90 1313.80 L 425.90 1298.20 L 419.60 1283.20 L 414.00 1268.80 Z" fill="#fddd44" fill-rule="nonzero" group-id="48,63" node-id="371" stroke="none" target-height="293.6001" target-width="563.7" target-x="414" target-y="1259.7"></path></g></g><path d="M 680.60 1307.30 L 688.50 1304.60 L 696.10 1302.80 L 703.30 1301.90 L 710.30 1301.70 L 717.10 1302.20 L 723.60 1303.50 L 730.00 1305.50 L 736.40 1308.30 L 742.60 1312.00 L 748.80 1316.40 L 755.00 1321.90 L 726.20 1390.60 L 723.20 1395.50 L 719.00 1399.50 L 716.50 1401.00 L 709.40 1403.70 L 705.30 1404.70 L 701.50 1405.10 L 698.10 1405.00 L 694.60 1404.40 L 691.30 1403.50 L 688.20 1402.20 L 685.30 1400.50 L 681.70 1397.70 L 678.30 1394.40 L 675.10 1390.40 L 672.20 1386.20 L 666.80 1376.60 L 663.10 1368.90 L 647.60 1330.10 L 645.50 1325.70 L 641.30 1318.70 L 647.90 1315.50 L 655.10 1312.70 L 662.90 1310.40 L 671.40 1308.60 L 680.60 1307.30 Z" fill="#685e67" fill-rule="nonzero" group-id="49" node-id="377" stroke="none" target-height="103.400024" target-width="113.70001" target-x="641.3" target-y="1301.7"></path></svg>